<?xml version="1.0" encoding="UTF-8"?>
<svg id="Layer_1" data-name="Layer 1" xmlns="http://www.w3.org/2000/svg" viewBox="0 0 631.16 219.16">
  <defs>
    <style>
      .cls-1 {
        fill: #0857c3;
      }
    </style>
  </defs>
  <path class="cls-1" d="M262.44,164.37l17.52-69.77,17.53,69.77h215.26v-56.44l33.26,56.44h30.35V54.79h-30.35v56.44l-33.26-56.44h-181.46l-14.6,67.26-19.2-67.26h-35.05s-19.2,67.26-19.2,67.26l-14.6-67.26H118.4v39.32h-33.26V54.79h-30.35v109.58h30.35v-42.32h33.26v42.32h144.05Zm110.21-24.9h-15.81v-59.71h15.81c16.49,0,29.86,13.37,29.86,29.86s-13.37,29.86-29.86,29.86Zm109.76-.01h-48.45s0-17.4,0-17.4h34.52v-24.95h-34.52v-17.35h48.45v59.7Zm-302.57,1.8c-14.92,0-28.97-11.44-28.97-31.58s14.05-31.72,28.97-31.72,28.82,11.59,28.82,31.72-14.19,31.58-28.82,31.58Z"/>
</svg>